<mxfile host="app.diagrams.net" modified="2024-02-18T08:39:06.098Z" agent="Mozilla/5.0 (Windows NT 10.0; Win64; x64; rv:122.0) Gecko/20100101 Firefox/122.0" etag="YJOZA4omVLrqFY1-IPtH" version="23.1.5" type="github">
  <diagram name="Page-1" id="ishzGQ7BlXI16JWshq2P">
    <mxGraphModel dx="2071" dy="761" grid="1" gridSize="10" guides="1" tooltips="1" connect="1" arrows="1" fold="1" page="1" pageScale="1" pageWidth="850" pageHeight="1100" math="0" shadow="0">
      <root>
        <mxCell id="0" />
        <mxCell id="1" parent="0" />
        <mxCell id="F_xwEcauyWDHUwU5RK8R-1" value="" style="rounded=0;whiteSpace=wrap;html=1;" parent="1" vertex="1">
          <mxGeometry x="-850" width="690" height="420" as="geometry" />
        </mxCell>
        <mxCell id="F_xwEcauyWDHUwU5RK8R-4" value="" style="rounded=0;whiteSpace=wrap;html=1;fillColor=#ffe6cc;strokeColor=#d79b00;" parent="1" vertex="1">
          <mxGeometry x="-820" y="30" width="610" height="30" as="geometry" />
        </mxCell>
        <mxCell id="F_xwEcauyWDHUwU5RK8R-6" value="" style="rounded=0;whiteSpace=wrap;html=1;fillColor=#ffe6cc;strokeColor=#d79b00;" parent="1" vertex="1">
          <mxGeometry x="-720" y="130" width="400" height="165" as="geometry" />
        </mxCell>
        <mxCell id="F_xwEcauyWDHUwU5RK8R-7" value="" style="rounded=0;whiteSpace=wrap;html=1;fillColor=#ffe6cc;strokeColor=#d79b00;" parent="1" vertex="1">
          <mxGeometry x="-670" y="330" width="300" height="70" as="geometry" />
        </mxCell>
        <mxCell id="F_xwEcauyWDHUwU5RK8R-8" value="" style="whiteSpace=wrap;html=1;aspect=fixed;fillColor=#ffcd28;strokeColor=#d79b00;gradientColor=#ffa500;" parent="1" vertex="1">
          <mxGeometry x="-820" y="30" width="30" height="30" as="geometry" />
        </mxCell>
        <mxCell id="F_xwEcauyWDHUwU5RK8R-9" value="" style="whiteSpace=wrap;html=1;aspect=fixed;fillColor=#f8cecc;strokeColor=#b85450;" parent="1" vertex="1">
          <mxGeometry x="-790" y="30" width="30" height="30" as="geometry" />
        </mxCell>
        <mxCell id="F_xwEcauyWDHUwU5RK8R-10" value="" style="whiteSpace=wrap;html=1;aspect=fixed;fillColor=#f8cecc;strokeColor=#b85450;" parent="1" vertex="1">
          <mxGeometry x="-760" y="30" width="30" height="30" as="geometry" />
        </mxCell>
        <mxCell id="F_xwEcauyWDHUwU5RK8R-11" value="" style="whiteSpace=wrap;html=1;aspect=fixed;fillColor=#f8cecc;strokeColor=#b85450;" parent="1" vertex="1">
          <mxGeometry x="-730" y="30" width="30" height="30" as="geometry" />
        </mxCell>
        <mxCell id="F_xwEcauyWDHUwU5RK8R-12" value="Works" style="text;html=1;align=center;verticalAlign=middle;whiteSpace=wrap;rounded=0;fontSize=8;" parent="1" vertex="1">
          <mxGeometry x="-792.5" y="40" width="35" height="10" as="geometry" />
        </mxCell>
        <mxCell id="F_xwEcauyWDHUwU5RK8R-14" value="Contact" style="text;html=1;align=center;verticalAlign=middle;whiteSpace=wrap;rounded=0;fontSize=7;" parent="1" vertex="1">
          <mxGeometry x="-762.5" y="40" width="35" height="10" as="geometry" />
        </mxCell>
        <mxCell id="F_xwEcauyWDHUwU5RK8R-16" value="Home" style="text;html=1;align=center;verticalAlign=middle;whiteSpace=wrap;rounded=0;fontSize=10;" parent="1" vertex="1">
          <mxGeometry x="-822.5" y="40" width="35" height="10" as="geometry" />
        </mxCell>
        <mxCell id="F_xwEcauyWDHUwU5RK8R-17" value="About" style="text;html=1;align=center;verticalAlign=middle;whiteSpace=wrap;rounded=0;fontSize=9;" parent="1" vertex="1">
          <mxGeometry x="-732.5" y="40" width="35" height="10" as="geometry" />
        </mxCell>
        <mxCell id="F_xwEcauyWDHUwU5RK8R-18" value="&lt;div style=&quot;font-family: Fira Code, SFMono-Regular, Consolas, &amp;quot;Liberation Mono&amp;quot;, Menlo, Courier, monospace, Consolas, &amp;quot;Courier New&amp;quot;, monospace; font-weight: normal; font-size: 7px; line-height: 23px;&quot;&gt;&lt;div style=&quot;font-size: 7px;&quot;&gt;&lt;br style=&quot;font-size: 7px;&quot;&gt;&lt;/div&gt;&lt;div style=&quot;font-size: 7px;&quot;&gt;Lorem ipsum dolor sit amet consectetur adipisicing elit. Est sint eaque&lt;/div&gt;&lt;div style=&quot;font-size: 7px;&quot;&gt;&lt;span style=&quot;font-size: 7px;&quot;&gt;&amp;nbsp; &amp;nbsp; &amp;nbsp; ducimus quos provident, repudiandae similique mollitia labore voluptas&lt;/span&gt;&lt;/div&gt;&lt;div style=&quot;font-size: 7px;&quot;&gt;&lt;span style=&quot;font-size: 7px;&quot;&gt;&amp;nbsp; &amp;nbsp; &amp;nbsp; sit, ex architecto autem neque accusamus quia ab eius, repellat id!&lt;/span&gt;&lt;/div&gt;&lt;/div&gt;" style="text;html=1;align=center;verticalAlign=middle;whiteSpace=wrap;rounded=0;fontColor=#050505;labelBackgroundColor=none;fontSize=7;" parent="1" vertex="1">
          <mxGeometry x="-770" y="340" width="500" height="30" as="geometry" />
        </mxCell>
        <mxCell id="F_xwEcauyWDHUwU5RK8R-20" value="img bootstrap carousel" style="text;html=1;align=center;verticalAlign=middle;whiteSpace=wrap;rounded=0;" parent="1" vertex="1">
          <mxGeometry x="-592.5" y="197.5" width="175" height="30" as="geometry" />
        </mxCell>
        <mxCell id="F_xwEcauyWDHUwU5RK8R-21" value="" style="shape=singleArrow;whiteSpace=wrap;html=1;" parent="1" vertex="1">
          <mxGeometry x="-350" y="195" width="20" height="30" as="geometry" />
        </mxCell>
        <mxCell id="F_xwEcauyWDHUwU5RK8R-23" value="" style="shape=singleArrow;direction=west;whiteSpace=wrap;html=1;" parent="1" vertex="1">
          <mxGeometry x="-710" y="195" width="20" height="30" as="geometry" />
        </mxCell>
        <mxCell id="F_xwEcauyWDHUwU5RK8R-24" value="&quot;Welcome&quot;" style="text;html=1;align=center;verticalAlign=middle;whiteSpace=wrap;rounded=0;fontSize=17;" parent="1" vertex="1">
          <mxGeometry x="-555" y="80" width="70" height="30" as="geometry" />
        </mxCell>
        <mxCell id="WooC1c7lgdvw5zfPGL4C-1" value="" style="rounded=0;whiteSpace=wrap;html=1;" vertex="1" parent="1">
          <mxGeometry x="-850" y="500" width="690" height="420" as="geometry" />
        </mxCell>
        <mxCell id="WooC1c7lgdvw5zfPGL4C-2" value="" style="rounded=0;whiteSpace=wrap;html=1;fillColor=#ffe6cc;strokeColor=#d79b00;" vertex="1" parent="1">
          <mxGeometry x="-820" y="530" width="610" height="30" as="geometry" />
        </mxCell>
        <mxCell id="WooC1c7lgdvw5zfPGL4C-3" value="" style="rounded=0;whiteSpace=wrap;html=1;fillColor=#ffe6cc;strokeColor=#d79b00;" vertex="1" parent="1">
          <mxGeometry x="-790" y="680" width="90" height="100" as="geometry" />
        </mxCell>
        <mxCell id="WooC1c7lgdvw5zfPGL4C-4" value="" style="rounded=0;whiteSpace=wrap;html=1;fillColor=#ffe6cc;strokeColor=#d79b00;" vertex="1" parent="1">
          <mxGeometry x="-790" y="780" width="90" height="70" as="geometry" />
        </mxCell>
        <mxCell id="WooC1c7lgdvw5zfPGL4C-5" value="" style="whiteSpace=wrap;html=1;aspect=fixed;fillColor=#ffcc99;strokeColor=#36393d;" vertex="1" parent="1">
          <mxGeometry x="-820" y="530" width="30" height="30" as="geometry" />
        </mxCell>
        <mxCell id="WooC1c7lgdvw5zfPGL4C-6" value="" style="whiteSpace=wrap;html=1;aspect=fixed;fillColor=#ffcd28;strokeColor=#d79b00;gradientColor=#ffa500;" vertex="1" parent="1">
          <mxGeometry x="-790" y="530" width="30" height="30" as="geometry" />
        </mxCell>
        <mxCell id="WooC1c7lgdvw5zfPGL4C-7" value="" style="whiteSpace=wrap;html=1;aspect=fixed;fillColor=#ffcc99;strokeColor=#36393d;" vertex="1" parent="1">
          <mxGeometry x="-760" y="530" width="30" height="30" as="geometry" />
        </mxCell>
        <mxCell id="WooC1c7lgdvw5zfPGL4C-8" value="" style="whiteSpace=wrap;html=1;aspect=fixed;fillColor=#ffcc99;strokeColor=#36393d;" vertex="1" parent="1">
          <mxGeometry x="-730" y="530" width="30" height="30" as="geometry" />
        </mxCell>
        <mxCell id="WooC1c7lgdvw5zfPGL4C-9" value="Works" style="text;html=1;align=center;verticalAlign=middle;whiteSpace=wrap;rounded=0;fontSize=8;" vertex="1" parent="1">
          <mxGeometry x="-792.5" y="540" width="35" height="10" as="geometry" />
        </mxCell>
        <mxCell id="WooC1c7lgdvw5zfPGL4C-10" value="Contact" style="text;html=1;align=center;verticalAlign=middle;whiteSpace=wrap;rounded=0;fontSize=7;" vertex="1" parent="1">
          <mxGeometry x="-762.5" y="540" width="35" height="10" as="geometry" />
        </mxCell>
        <mxCell id="WooC1c7lgdvw5zfPGL4C-11" value="Home" style="text;html=1;align=center;verticalAlign=middle;whiteSpace=wrap;rounded=0;fontSize=10;" vertex="1" parent="1">
          <mxGeometry x="-822.5" y="540" width="35" height="10" as="geometry" />
        </mxCell>
        <mxCell id="WooC1c7lgdvw5zfPGL4C-12" value="About" style="text;html=1;align=center;verticalAlign=middle;whiteSpace=wrap;rounded=0;fontSize=9;" vertex="1" parent="1">
          <mxGeometry x="-732.5" y="540" width="35" height="10" as="geometry" />
        </mxCell>
        <mxCell id="WooC1c7lgdvw5zfPGL4C-13" value="&lt;font style=&quot;font-size: 11px;&quot;&gt;description&lt;/font&gt;" style="text;html=1;align=center;verticalAlign=middle;whiteSpace=wrap;rounded=0;fontColor=#050505;labelBackgroundColor=none;fontSize=7;" vertex="1" parent="1">
          <mxGeometry x="-840" y="780" width="190" height="30" as="geometry" />
        </mxCell>
        <mxCell id="WooC1c7lgdvw5zfPGL4C-17" value="&quot;Gallery&quot;" style="text;html=1;align=center;verticalAlign=middle;whiteSpace=wrap;rounded=0;fontSize=17;" vertex="1" parent="1">
          <mxGeometry x="-555" y="580" width="70" height="30" as="geometry" />
        </mxCell>
        <mxCell id="WooC1c7lgdvw5zfPGL4C-18" value="&lt;font style=&quot;font-size: 14px;&quot;&gt;image &lt;/font&gt;" style="text;html=1;align=center;verticalAlign=middle;whiteSpace=wrap;rounded=0;fontColor=#050505;labelBackgroundColor=none;fontSize=7;" vertex="1" parent="1">
          <mxGeometry x="-840" y="710" width="190" height="30" as="geometry" />
        </mxCell>
        <mxCell id="WooC1c7lgdvw5zfPGL4C-19" value="" style="rounded=0;whiteSpace=wrap;html=1;fillColor=#ffe6cc;strokeColor=#d79b00;" vertex="1" parent="1">
          <mxGeometry x="-682.5" y="680" width="90" height="100" as="geometry" />
        </mxCell>
        <mxCell id="WooC1c7lgdvw5zfPGL4C-20" value="&lt;font style=&quot;font-size: 14px;&quot;&gt;image &lt;/font&gt;" style="text;html=1;align=center;verticalAlign=middle;whiteSpace=wrap;rounded=0;fontColor=#050505;labelBackgroundColor=none;fontSize=7;" vertex="1" parent="1">
          <mxGeometry x="-732.5" y="710" width="190" height="30" as="geometry" />
        </mxCell>
        <mxCell id="WooC1c7lgdvw5zfPGL4C-21" value="" style="rounded=0;whiteSpace=wrap;html=1;fillColor=#ffe6cc;strokeColor=#d79b00;" vertex="1" parent="1">
          <mxGeometry x="-682.5" y="780" width="90" height="70" as="geometry" />
        </mxCell>
        <mxCell id="WooC1c7lgdvw5zfPGL4C-22" value="&lt;font style=&quot;font-size: 11px;&quot;&gt;description&lt;/font&gt;" style="text;html=1;align=center;verticalAlign=middle;whiteSpace=wrap;rounded=0;fontColor=#050505;labelBackgroundColor=none;fontSize=7;" vertex="1" parent="1">
          <mxGeometry x="-732.5" y="780" width="190" height="30" as="geometry" />
        </mxCell>
        <mxCell id="WooC1c7lgdvw5zfPGL4C-24" value="" style="rounded=0;whiteSpace=wrap;html=1;fillColor=#ffe6cc;strokeColor=#d79b00;" vertex="1" parent="1">
          <mxGeometry x="-580" y="680" width="90" height="100" as="geometry" />
        </mxCell>
        <mxCell id="WooC1c7lgdvw5zfPGL4C-25" value="&lt;font style=&quot;font-size: 14px;&quot;&gt;image &lt;/font&gt;" style="text;html=1;align=center;verticalAlign=middle;whiteSpace=wrap;rounded=0;fontColor=#050505;labelBackgroundColor=none;fontSize=7;" vertex="1" parent="1">
          <mxGeometry x="-630" y="710" width="190" height="30" as="geometry" />
        </mxCell>
        <mxCell id="WooC1c7lgdvw5zfPGL4C-26" value="&lt;font style=&quot;font-size: 11px;&quot;&gt;description&lt;/font&gt;" style="text;html=1;align=center;verticalAlign=middle;whiteSpace=wrap;rounded=0;fontColor=#050505;labelBackgroundColor=none;fontSize=7;" vertex="1" parent="1">
          <mxGeometry x="-630" y="780" width="190" height="30" as="geometry" />
        </mxCell>
        <mxCell id="WooC1c7lgdvw5zfPGL4C-27" value="" style="rounded=0;whiteSpace=wrap;html=1;fillColor=#ffe6cc;strokeColor=#d79b00;" vertex="1" parent="1">
          <mxGeometry x="-580" y="780" width="90" height="70" as="geometry" />
        </mxCell>
        <mxCell id="WooC1c7lgdvw5zfPGL4C-28" value="" style="rounded=0;whiteSpace=wrap;html=1;fillColor=#ffe6cc;strokeColor=#d79b00;" vertex="1" parent="1">
          <mxGeometry x="-480" y="680" width="90" height="100" as="geometry" />
        </mxCell>
        <mxCell id="WooC1c7lgdvw5zfPGL4C-29" value="&lt;font style=&quot;font-size: 14px;&quot;&gt;image &lt;/font&gt;" style="text;html=1;align=center;verticalAlign=middle;whiteSpace=wrap;rounded=0;fontColor=#050505;labelBackgroundColor=none;fontSize=7;" vertex="1" parent="1">
          <mxGeometry x="-530" y="710" width="190" height="30" as="geometry" />
        </mxCell>
        <mxCell id="WooC1c7lgdvw5zfPGL4C-30" value="&lt;font style=&quot;font-size: 11px;&quot;&gt;description&lt;/font&gt;" style="text;html=1;align=center;verticalAlign=middle;whiteSpace=wrap;rounded=0;fontColor=#050505;labelBackgroundColor=none;fontSize=7;" vertex="1" parent="1">
          <mxGeometry x="-530" y="780" width="190" height="30" as="geometry" />
        </mxCell>
        <mxCell id="WooC1c7lgdvw5zfPGL4C-31" value="" style="rounded=0;whiteSpace=wrap;html=1;fillColor=#ffe6cc;strokeColor=#d79b00;" vertex="1" parent="1">
          <mxGeometry x="-480" y="780" width="90" height="70" as="geometry" />
        </mxCell>
        <mxCell id="WooC1c7lgdvw5zfPGL4C-32" value="&lt;font style=&quot;font-size: 11px;&quot;&gt;description&lt;/font&gt;" style="text;html=1;align=center;verticalAlign=middle;whiteSpace=wrap;rounded=0;fontColor=#050505;labelBackgroundColor=none;fontSize=7;" vertex="1" parent="1">
          <mxGeometry x="-630" y="780" width="190" height="30" as="geometry" />
        </mxCell>
        <mxCell id="WooC1c7lgdvw5zfPGL4C-33" value="&lt;font style=&quot;font-size: 11px;&quot;&gt;description&lt;/font&gt;" style="text;html=1;align=center;verticalAlign=middle;whiteSpace=wrap;rounded=0;fontColor=#050505;labelBackgroundColor=none;fontSize=7;" vertex="1" parent="1">
          <mxGeometry x="-530" y="780" width="190" height="30" as="geometry" />
        </mxCell>
        <mxCell id="WooC1c7lgdvw5zfPGL4C-34" value="" style="rounded=0;whiteSpace=wrap;html=1;fillColor=#ffe6cc;strokeColor=#d79b00;" vertex="1" parent="1">
          <mxGeometry x="-640" y="620" width="230" height="40" as="geometry" />
        </mxCell>
        <mxCell id="WooC1c7lgdvw5zfPGL4C-35" value="description" style="text;html=1;align=center;verticalAlign=middle;whiteSpace=wrap;rounded=0;" vertex="1" parent="1">
          <mxGeometry x="-550" y="625" width="60" height="30" as="geometry" />
        </mxCell>
        <mxCell id="WooC1c7lgdvw5zfPGL4C-68" value="" style="rounded=0;whiteSpace=wrap;html=1;" vertex="1" parent="1">
          <mxGeometry x="-90" y="2.5" width="690" height="420" as="geometry" />
        </mxCell>
        <mxCell id="WooC1c7lgdvw5zfPGL4C-69" value="" style="rounded=0;whiteSpace=wrap;html=1;fillColor=#ffe6cc;strokeColor=#d79b00;" vertex="1" parent="1">
          <mxGeometry x="-60" y="32.5" width="610" height="30" as="geometry" />
        </mxCell>
        <mxCell id="WooC1c7lgdvw5zfPGL4C-70" value="" style="rounded=0;whiteSpace=wrap;html=1;fillColor=#ffe6cc;strokeColor=#d79b00;" vertex="1" parent="1">
          <mxGeometry x="180" y="132.5" width="140" height="207.5" as="geometry" />
        </mxCell>
        <mxCell id="WooC1c7lgdvw5zfPGL4C-72" value="" style="whiteSpace=wrap;html=1;aspect=fixed;fillColor=#ffcc99;strokeColor=#36393d;" vertex="1" parent="1">
          <mxGeometry x="-60" y="32.5" width="30" height="30" as="geometry" />
        </mxCell>
        <mxCell id="WooC1c7lgdvw5zfPGL4C-73" value="" style="whiteSpace=wrap;html=1;aspect=fixed;fillColor=#ffcc99;strokeColor=#36393d;" vertex="1" parent="1">
          <mxGeometry x="-30" y="32.5" width="30" height="30" as="geometry" />
        </mxCell>
        <mxCell id="WooC1c7lgdvw5zfPGL4C-74" value="" style="whiteSpace=wrap;html=1;aspect=fixed;fillColor=#ffcd28;strokeColor=#d79b00;gradientColor=#ffa500;" vertex="1" parent="1">
          <mxGeometry y="32.5" width="30" height="30" as="geometry" />
        </mxCell>
        <mxCell id="WooC1c7lgdvw5zfPGL4C-75" value="" style="whiteSpace=wrap;html=1;aspect=fixed;fillColor=#ffcc99;strokeColor=#36393d;" vertex="1" parent="1">
          <mxGeometry x="30" y="32.5" width="30" height="30" as="geometry" />
        </mxCell>
        <mxCell id="WooC1c7lgdvw5zfPGL4C-76" value="Works" style="text;html=1;align=center;verticalAlign=middle;whiteSpace=wrap;rounded=0;fontSize=8;" vertex="1" parent="1">
          <mxGeometry x="-32.5" y="42.5" width="35" height="10" as="geometry" />
        </mxCell>
        <mxCell id="WooC1c7lgdvw5zfPGL4C-77" value="Contact" style="text;html=1;align=center;verticalAlign=middle;whiteSpace=wrap;rounded=0;fontSize=7;" vertex="1" parent="1">
          <mxGeometry x="-2.5" y="42.5" width="35" height="10" as="geometry" />
        </mxCell>
        <mxCell id="WooC1c7lgdvw5zfPGL4C-78" value="Home" style="text;html=1;align=center;verticalAlign=middle;whiteSpace=wrap;rounded=0;fontSize=10;" vertex="1" parent="1">
          <mxGeometry x="-62.5" y="42.5" width="35" height="10" as="geometry" />
        </mxCell>
        <mxCell id="WooC1c7lgdvw5zfPGL4C-79" value="About" style="text;html=1;align=center;verticalAlign=middle;whiteSpace=wrap;rounded=0;fontSize=9;" vertex="1" parent="1">
          <mxGeometry x="27.5" y="42.5" width="35" height="10" as="geometry" />
        </mxCell>
        <mxCell id="WooC1c7lgdvw5zfPGL4C-84" value="Business Inquiries" style="text;html=1;align=center;verticalAlign=middle;whiteSpace=wrap;rounded=0;fontSize=17;" vertex="1" parent="1">
          <mxGeometry x="157.5" y="82.5" width="195" height="30" as="geometry" />
        </mxCell>
        <mxCell id="WooC1c7lgdvw5zfPGL4C-85" value="" style="rounded=0;whiteSpace=wrap;html=1;" vertex="1" parent="1">
          <mxGeometry x="-90" y="500" width="690" height="420" as="geometry" />
        </mxCell>
        <mxCell id="WooC1c7lgdvw5zfPGL4C-86" value="" style="rounded=0;whiteSpace=wrap;html=1;fillColor=#ffe6cc;strokeColor=#d79b00;" vertex="1" parent="1">
          <mxGeometry x="-60" y="530" width="610" height="30" as="geometry" />
        </mxCell>
        <mxCell id="WooC1c7lgdvw5zfPGL4C-87" value="" style="rounded=0;whiteSpace=wrap;html=1;fillColor=#ffe6cc;strokeColor=#d79b00;" vertex="1" parent="1">
          <mxGeometry x="90" y="630" width="290" height="165" as="geometry" />
        </mxCell>
        <mxCell id="WooC1c7lgdvw5zfPGL4C-88" value="" style="rounded=0;whiteSpace=wrap;html=1;fillColor=#ffe6cc;strokeColor=#d79b00;" vertex="1" parent="1">
          <mxGeometry x="90" y="830" width="300" height="70" as="geometry" />
        </mxCell>
        <mxCell id="WooC1c7lgdvw5zfPGL4C-89" value="" style="whiteSpace=wrap;html=1;aspect=fixed;fillColor=#ffcc99;strokeColor=#36393d;" vertex="1" parent="1">
          <mxGeometry x="-60" y="530" width="30" height="30" as="geometry" />
        </mxCell>
        <mxCell id="WooC1c7lgdvw5zfPGL4C-90" value="" style="whiteSpace=wrap;html=1;aspect=fixed;fillColor=#ffcc99;strokeColor=#36393d;" vertex="1" parent="1">
          <mxGeometry x="-30" y="530" width="30" height="30" as="geometry" />
        </mxCell>
        <mxCell id="WooC1c7lgdvw5zfPGL4C-91" value="" style="whiteSpace=wrap;html=1;aspect=fixed;fillColor=#ffcc99;strokeColor=#36393d;" vertex="1" parent="1">
          <mxGeometry y="530" width="30" height="30" as="geometry" />
        </mxCell>
        <mxCell id="WooC1c7lgdvw5zfPGL4C-92" value="" style="whiteSpace=wrap;html=1;aspect=fixed;fillColor=#ffcd28;strokeColor=#d79b00;gradientColor=#ffa500;" vertex="1" parent="1">
          <mxGeometry x="30" y="530" width="30" height="30" as="geometry" />
        </mxCell>
        <mxCell id="WooC1c7lgdvw5zfPGL4C-93" value="Works" style="text;html=1;align=center;verticalAlign=middle;whiteSpace=wrap;rounded=0;fontSize=8;" vertex="1" parent="1">
          <mxGeometry x="-32.5" y="540" width="35" height="10" as="geometry" />
        </mxCell>
        <mxCell id="WooC1c7lgdvw5zfPGL4C-94" value="Contact" style="text;html=1;align=center;verticalAlign=middle;whiteSpace=wrap;rounded=0;fontSize=7;" vertex="1" parent="1">
          <mxGeometry x="-2.5" y="540" width="35" height="10" as="geometry" />
        </mxCell>
        <mxCell id="WooC1c7lgdvw5zfPGL4C-95" value="Home" style="text;html=1;align=center;verticalAlign=middle;whiteSpace=wrap;rounded=0;fontSize=10;" vertex="1" parent="1">
          <mxGeometry x="-62.5" y="540" width="35" height="10" as="geometry" />
        </mxCell>
        <mxCell id="WooC1c7lgdvw5zfPGL4C-96" value="About" style="text;html=1;align=center;verticalAlign=middle;whiteSpace=wrap;rounded=0;fontSize=9;" vertex="1" parent="1">
          <mxGeometry x="27.5" y="540" width="35" height="10" as="geometry" />
        </mxCell>
        <mxCell id="WooC1c7lgdvw5zfPGL4C-97" value="&lt;font style=&quot;font-size: 12px;&quot;&gt;description&lt;/font&gt;" style="text;html=1;align=center;verticalAlign=middle;whiteSpace=wrap;rounded=0;fontColor=#050505;labelBackgroundColor=none;fontSize=7;" vertex="1" parent="1">
          <mxGeometry x="-10" y="840" width="500" height="30" as="geometry" />
        </mxCell>
        <mxCell id="WooC1c7lgdvw5zfPGL4C-101" value="&quot;Meet the Photographer&quot;" style="text;html=1;align=center;verticalAlign=middle;whiteSpace=wrap;rounded=0;fontSize=17;" vertex="1" parent="1">
          <mxGeometry x="112.5" y="580" width="265" height="30" as="geometry" />
        </mxCell>
        <mxCell id="WooC1c7lgdvw5zfPGL4C-102" value="" style="rounded=0;whiteSpace=wrap;html=1;" vertex="1" parent="1">
          <mxGeometry x="190" y="150" width="120" height="20" as="geometry" />
        </mxCell>
        <mxCell id="WooC1c7lgdvw5zfPGL4C-103" value="" style="rounded=0;whiteSpace=wrap;html=1;" vertex="1" parent="1">
          <mxGeometry x="190" y="190" width="120" height="20" as="geometry" />
        </mxCell>
        <mxCell id="WooC1c7lgdvw5zfPGL4C-104" value="" style="rounded=0;whiteSpace=wrap;html=1;" vertex="1" parent="1">
          <mxGeometry x="190" y="230" width="120" height="20" as="geometry" />
        </mxCell>
        <mxCell id="WooC1c7lgdvw5zfPGL4C-105" value="" style="rounded=0;whiteSpace=wrap;html=1;" vertex="1" parent="1">
          <mxGeometry x="190" y="270" width="120" height="40" as="geometry" />
        </mxCell>
        <mxCell id="WooC1c7lgdvw5zfPGL4C-106" value="" style="ellipse;whiteSpace=wrap;html=1;" vertex="1" parent="1">
          <mxGeometry x="230" y="320" width="40" height="10" as="geometry" />
        </mxCell>
        <mxCell id="WooC1c7lgdvw5zfPGL4C-108" value="First Name" style="text;html=1;align=center;verticalAlign=middle;whiteSpace=wrap;rounded=0;" vertex="1" parent="1">
          <mxGeometry x="180" y="130" width="140" height="30" as="geometry" />
        </mxCell>
        <mxCell id="WooC1c7lgdvw5zfPGL4C-109" value="Last Name" style="text;html=1;align=center;verticalAlign=middle;whiteSpace=wrap;rounded=0;" vertex="1" parent="1">
          <mxGeometry x="180" y="167.5" width="140" height="30" as="geometry" />
        </mxCell>
        <mxCell id="WooC1c7lgdvw5zfPGL4C-110" value="Email" style="text;html=1;align=center;verticalAlign=middle;whiteSpace=wrap;rounded=0;" vertex="1" parent="1">
          <mxGeometry x="180" y="210" width="140" height="30" as="geometry" />
        </mxCell>
        <mxCell id="WooC1c7lgdvw5zfPGL4C-111" value="Message" style="text;html=1;align=center;verticalAlign=middle;whiteSpace=wrap;rounded=0;" vertex="1" parent="1">
          <mxGeometry x="180" y="250" width="140" height="30" as="geometry" />
        </mxCell>
        <mxCell id="WooC1c7lgdvw5zfPGL4C-113" style="edgeStyle=orthogonalEdgeStyle;rounded=0;orthogonalLoop=1;jettySize=auto;html=1;entryX=0.5;entryY=0;entryDx=0;entryDy=0;" edge="1" parent="1" source="WooC1c7lgdvw5zfPGL4C-112" target="WooC1c7lgdvw5zfPGL4C-106">
          <mxGeometry relative="1" as="geometry" />
        </mxCell>
        <mxCell id="WooC1c7lgdvw5zfPGL4C-112" value="&quot;submit&quot; button" style="text;html=1;align=center;verticalAlign=middle;whiteSpace=wrap;rounded=0;" vertex="1" parent="1">
          <mxGeometry x="167.5" y="315" width="75" height="20" as="geometry" />
        </mxCell>
        <mxCell id="WooC1c7lgdvw5zfPGL4C-114" value="Portrait Image" style="text;html=1;align=center;verticalAlign=middle;whiteSpace=wrap;rounded=0;" vertex="1" parent="1">
          <mxGeometry x="205" y="697.5" width="60" height="30" as="geometry" />
        </mxCell>
      </root>
    </mxGraphModel>
  </diagram>
</mxfile>
